<?xml version="1.0"?>
<svg version="1.1" xmlns="http://www.w3.org/2000/svg" width="210" height="50" style=""><path fill="#0f5cd1" d="M32.07,22l-1.86,0l0,2.22q0,2.76-1.92,4.62q-1.89,1.8-4.5,1.8q-2.79,0-4.59-1.8t-1.8-4.62l0-2.22l-1.86,0l0,2.22q0,3.36,2.04,5.7q2.01,2.37,5.1,2.58l0,10.53l1.89,0l0-10.53q3.15-0.24,5.31-2.58q2.19-2.34,2.19-5.7l0-2.22z M49.3752,21.91l-1.92,0l0,13.95q0,2.25-1.5,3.75t-3.75,1.5t-3.75-1.5q-1.53-1.47-1.53-3.75l0-3.39l-1.86,0l0,3.39q0,3.03,2.16,5.1q2.13,2.04,4.98,2.04q3.12,0,5.16-2.04q2.01-2.01,2.01-5.1l0-13.95z M67.9104,43l3.03,0l-13.41-10.71l13.41-10.32l-3.03,0l-11.52,9.18l0-9.18l-1.89,0l0,21.03l1.89,0l0-9.18z M75.6756,26.2l1.89,0l0.6-7.2l-3.09,0z M87.3708,24.19l11.31,0l0-2.28l-11.31,0q-2.22,0-3.72,1.74q-1.53,1.77-1.53,4.29q0,2.28,1.53,3.96q1.5,1.71,3.72,1.71l3,0l3.06,0q1.35,0,2.4,1.14q0.99,1.2,0.99,2.61q0,1.68-0.975,2.73t-2.415,1.05l-11.31,0l0,1.86l11.31,0q2.25,0,3.75-1.56t1.5-4.08q0-2.28-1.5-3.96q-1.53-1.68-3.75-1.68l-3.06,0l-3,0q-1.38,0-2.37-1.2q-1.02-1.11-1.02-2.58q0-1.68,0.975-2.715t2.415-1.035z M126.9312,32.29q1.17-0.57,1.92-1.89q0.75-1.26,0.75-2.7q0-2.58-1.74-4.17q-1.74-1.56-4.38-1.56l-8.43,0l-0.36,0l-1.53,0l0,21.03l1.53,0l0.36,0l8.43,0q2.64,0,4.38-1.56q1.74-1.59,1.74-4.17q0-1.41-0.735-2.745t-1.935-2.235z M115.0512,23.5l8.43,0q1.8,0,2.97,1.23q1.26,1.32,1.26,2.97q0,1.35-0.99,2.49q-0.93,1.02-2.46,1.35l-0.78,0l-8.43,0l0-8.04z M123.4812,41.47l-8.43,0l0-8.04l8.43,0l0.78,0q1.53,0.33,2.46,1.35q0.99,1.14,0.99,2.49q0,1.62-1.26,2.94q-1.2,1.26-2.97,1.26z M134.2464,43.06l14.67,0l0-1.53l-12.81,0l0-19.53l-1.86,0l0,21.06z M160.4916,22q-3.39,0-5.82,2.43q-2.46,2.46-2.46,5.85l0,4.53q0,3.33,2.46,5.79t5.82,2.46q3.39,0,5.85-2.46q2.43-2.43,2.43-5.79l0-4.53q0-3.42-2.43-5.85t-5.85-2.43z M166.9116,30.28l0,4.53q0,2.73-1.92,4.59q-1.89,1.8-4.5,1.8t-4.47-1.8q-1.92-1.86-1.92-4.59l0-4.53q0-2.52,1.92-4.5q1.92-1.92,4.47-1.92q2.52,0,4.5,1.92q1.92,1.98,1.92,4.5z M183.1968,23.8l5.79,0l0-1.89l-5.79,0q-4.32,0-7.32,3.06q-3.03,3.09-3.03,7.71q0,4.29,3.03,7.32t7.32,3.03l3.84,0l1.95,0l0-1.92l0-9.6l-1.95,0l-4.59,0l0,1.92l4.59,0l0,7.68l-3.84,0q-3.42,0-5.91-2.49t-2.49-5.94q0-3.75,2.49-6.33q2.46-2.55,5.91-2.55z"/><path fill="#" d=""/></svg>
